<?xml version="1.0" encoding="us-ascii" standalone="no"?><svg xmlns="http://www.w3.org/2000/svg" xmlns:xlink="http://www.w3.org/1999/xlink" contentStyleType="text/css" height="127px" preserveAspectRatio="none" style="width:862px;height:127px;background:#FFFFFF;" version="1.1" viewBox="0 0 862 127" width="862px" zoomAndPan="magnify"><defs/><g><!--class box--><g id="elem_box"><rect codeLine="1" fill="#F1F1F1" height="64.2969" id="box" rx="2.5" ry="2.5" style="stroke:#181818;stroke-width:0.5;" width="83" x="7" y="31.5"/><ellipse cx="33.7" cy="47.5" fill="#ADD1B2" rx="11" ry="11" style="stroke:#181818;stroke-width:1.0;"/><path d="M37.8094,53.5 L30.0906,53.5 L30.0906,41.1094 L37.8094,41.1094 L37.8094,43.2656 L32.5438,43.2656 L32.5438,45.9375 L37.3094,45.9375 L37.3094,48.0938 L32.5438,48.0938 L32.5438,51.3438 L37.8094,51.3438 L37.8094,53.5 Z " fill="#000000"/><text fill="#000000" font-family="sans-serif" font-size="14" lengthAdjust="spacing" textLength="25" x="50.3" y="52.3467">box</text><line style="stroke:#181818;stroke-width:0.5;" x1="8" x2="89" y1="63.5" y2="63.5"/><text fill="#000000" font-family="sans-serif" font-size="14" lengthAdjust="spacing" textLength="71" x="13" y="80.4951">box_name</text><line style="stroke:#181818;stroke-width:1.0;" x1="8" x2="89" y1="87.7969" y2="87.7969"/></g><!--class channel--><g id="elem_channel"><rect codeLine="5" fill="#F1F1F1" height="113.1875" id="channel" rx="2.5" ry="2.5" style="stroke:#181818;stroke-width:0.5;" width="128" x="302.5" y="7"/><ellipse cx="335.95" cy="23" fill="#ADD1B2" rx="11" ry="11" style="stroke:#181818;stroke-width:1.0;"/><path d="M340.0594,29 L332.3406,29 L332.3406,16.6094 L340.0594,16.6094 L340.0594,18.7656 L334.7938,18.7656 L334.7938,21.4375 L339.5594,21.4375 L339.5594,23.5938 L334.7938,23.5938 L334.7938,26.8438 L340.0594,26.8438 L340.0594,29 Z " fill="#000000"/><text fill="#000000" font-family="sans-serif" font-size="14" lengthAdjust="spacing" textLength="55" x="354.05" y="27.8467">channel</text><line style="stroke:#181818;stroke-width:0.5;" x1="303.5" x2="429.5" y1="39" y2="39"/><text fill="#000000" font-family="sans-serif" font-size="14" lengthAdjust="spacing" textLength="101" x="308.5" y="55.9951">channel_name</text><line style="stroke:#181818;stroke-width:1.0;" x1="303.5" x2="429.5" y1="63.2969" y2="63.2969"/><text fill="#000000" font-family="sans-serif" font-size="14" lengthAdjust="spacing" textLength="101" x="308.5" y="80.292">port_name[FK]</text><text fill="#000000" font-family="sans-serif" font-size="14" lengthAdjust="spacing" textLength="116" x="308.5" y="96.5889">channel_number</text><text fill="#000000" font-family="sans-serif" font-size="14" lengthAdjust="spacing" textLength="109" x="308.5" y="112.8857">ndelay_or_nwait</text></g><!--class port--><g id="elem_port"><rect codeLine="12" fill="#F1F1F1" height="96.8906" id="port" rx="2.5" ry="2.5" style="stroke:#181818;stroke-width:0.5;" width="110" x="141.5" y="15.5"/><ellipse cx="179" cy="31.5" fill="#ADD1B2" rx="11" ry="11" style="stroke:#181818;stroke-width:1.0;"/><path d="M183.1094,37.5 L175.3906,37.5 L175.3906,25.1094 L183.1094,25.1094 L183.1094,27.2656 L177.8438,27.2656 L177.8438,29.9375 L182.6094,29.9375 L182.6094,32.0938 L177.8438,32.0938 L177.8438,35.3438 L183.1094,35.3438 L183.1094,37.5 Z " fill="#000000"/><text fill="#000000" font-family="sans-serif" font-size="14" lengthAdjust="spacing" textLength="28" x="198" y="36.3467">port</text><line style="stroke:#181818;stroke-width:0.5;" x1="142.5" x2="250.5" y1="47.5" y2="47.5"/><text fill="#000000" font-family="sans-serif" font-size="14" lengthAdjust="spacing" textLength="74" x="147.5" y="64.4951">port_name</text><line style="stroke:#181818;stroke-width:1.0;" x1="142.5" x2="250.5" y1="71.7969" y2="71.7969"/><text fill="#000000" font-family="sans-serif" font-size="14" lengthAdjust="spacing" textLength="98" x="147.5" y="88.792">box_name[FK]</text><text fill="#000000" font-family="sans-serif" font-size="14" lengthAdjust="spacing" textLength="89" x="147.5" y="105.0889">port_number</text></g><!--class relation_channel_target--><g id="elem_relation_channel_target"><rect codeLine="18" fill="#F1F1F1" height="80.5938" id="relation_channel_target" rx="2.5" ry="2.5" style="stroke:#181818;stroke-width:0.5;" width="193" x="482" y="23.5"/><ellipse cx="497" cy="39.5" fill="#ADD1B2" rx="11" ry="11" style="stroke:#181818;stroke-width:1.0;"/><path d="M501.1094,45.5 L493.3906,45.5 L493.3906,33.1094 L501.1094,33.1094 L501.1094,35.2656 L495.8438,35.2656 L495.8438,37.9375 L500.6094,37.9375 L500.6094,40.0938 L495.8438,40.0938 L495.8438,43.3438 L501.1094,43.3438 L501.1094,45.5 Z " fill="#000000"/><text fill="#000000" font-family="sans-serif" font-size="14" lengthAdjust="spacing" textLength="161" x="511" y="44.3467">relation_channel_target</text><line style="stroke:#181818;stroke-width:0.5;" x1="483" x2="674" y1="55.5" y2="55.5"/><line style="stroke:#181818;stroke-width:1.0;" x1="483" x2="674" y1="63.5" y2="63.5"/><text fill="#000000" font-family="sans-serif" font-size="14" lengthAdjust="spacing" textLength="128" x="488" y="80.4951">channel_name[FK]</text><text fill="#000000" font-family="sans-serif" font-size="14" lengthAdjust="spacing" textLength="114" x="488" y="96.792">target_name[FK]</text></g><!--class target--><g id="elem_target"><rect codeLine="23" fill="#FFA07A" height="80.5938" id="target" rx="2.5" ry="2.5" style="stroke:#181818;stroke-width:0.5;" width="129" x="726" y="23.5"/><ellipse cx="766.2" cy="39.5" fill="#ADD1B2" rx="11" ry="11" style="stroke:#181818;stroke-width:1.0;"/><path d="M770.3094,45.5 L762.5906,45.5 L762.5906,33.1094 L770.3094,33.1094 L770.3094,35.2656 L765.0438,35.2656 L765.0438,37.9375 L769.8094,37.9375 L769.8094,40.0938 L765.0438,40.0938 L765.0438,43.3438 L770.3094,43.3438 L770.3094,45.5 Z " fill="#000000"/><text fill="#000000" font-family="sans-serif" font-size="14" lengthAdjust="spacing" textLength="41" x="785.8" y="44.3467">target</text><line style="stroke:#181818;stroke-width:0.5;" x1="727" x2="854" y1="55.5" y2="55.5"/><text fill="#000000" font-family="sans-serif" font-size="14" lengthAdjust="spacing" textLength="87" x="732" y="72.4951">target_name</text><line style="stroke:#181818;stroke-width:1.0;" x1="727" x2="854" y1="79.7969" y2="79.7969"/><text fill="#000000" font-family="sans-serif" font-size="14" lengthAdjust="spacing" textLength="117" x="732" y="96.792">target_frequency</text></g><!--link box to port--><!--reverse link box to port--><g id="link_box_port"><path codeLine="34" d="M97.5,75.5 C119.57,75.5 118.43,83.5 140.5,83.5 " fill="none" id="box-backto-port" style="stroke:#181818;stroke-width:1.0;"/><polygon fill="#181818" points="91.5,75.5,100.5,79.5,96.5,75.5,100.5,71.5,91.5,75.5" style="stroke:#181818;stroke-width:1.0;"/></g><!--link port to channel--><!--link channel to port--><g id="link_channel_port"><path codeLine="35" d="M301.5,75.5 C278.59,75.5 281.41,59.5 258.5,59.5 " fill="none" id="channel-to-port" style="stroke:#181818;stroke-width:1.0;"/><polygon fill="#181818" points="252.5,59.5,261.5,63.5,257.5,59.5,261.5,55.5,252.5,59.5" style="stroke:#181818;stroke-width:1.0;"/></g><!--link channel to relation_channel_target--><!--reverse link channel to relation_channel_target--><g id="link_channel_relation_channel_target"><path codeLine="36" d="M437.5,51.5 C462.15,51.5 456.85,75.5 481.5,75.5 " fill="none" id="channel-backto-relation_channel_target" style="stroke:#181818;stroke-width:1.0;"/><polygon fill="#181818" points="431.5,51.5,440.5,55.5,436.5,51.5,440.5,47.5,431.5,51.5" style="stroke:#181818;stroke-width:1.0;"/></g><!--link relation_channel_target to target--><!--link relation_channel_target to target--><g id="link_relation_channel_target_target"><path codeLine="37" d="M676.5,91.5 C700.75,91.5 695.25,67.5 719.5,67.5 " fill="none" id="relation_channel_target-to-target" style="stroke:#181818;stroke-width:1.0;"/><polygon fill="#181818" points="725.5,67.5,716.5,63.5,720.5,67.5,716.5,71.5,725.5,67.5" style="stroke:#181818;stroke-width:1.0;"/></g><!--SRC=[TP1DZi8m38NNyIagiVO5gX5BDh2R9K9Le8P6QfsPA0WgnDr9yzU0w2QAdfy_su_OAZjMHtr_W71lmt8W48W8Jw1GF7MIcVhAEKJyHvlt2V6dZVNAVhCzbARhS2JZ16wfbsEZJSCtgUoCdZedRYQ4qNcJ00pL0CkjnY6jqjoaQLQQ2tcQHvIR1ammp496nSxLJbqw-olxGVE4AVoH6PMpeVyhyMbq2F0duBvJRKjyw77AyaCqc3A4b6LPMxW4bYuiUwCLtD2wJgbLFuW-sbbAW-iwHrqXhgDhZZ_RolWyRs6RToSikeem_U0lEhm0]--></g></svg>